<?xml version="1.0" standalone="no"?>
<!DOCTYPE svg PUBLIC "-//W3C//DTD SVG 20010904//EN"
 "http://www.w3.org/TR/2001/REC-SVG-20010904/DTD/svg10.dtd">
<svg version="1.0" xmlns="http://www.w3.org/2000/svg"
 width="1280.000000pt" height="1280.000000pt" viewBox="0 0 1280.000000 1280.000000"
 preserveAspectRatio="xMidYMid meet">
<g transform="translate(0.000000,1280.000000) scale(0.100000,-0.100000)"
fill="#3f51b5" stroke="none">
<path d="M5980 11850 c-1205 -101 -2278 -548 -3180 -1324 -135 -116 -410 -392
-540 -543 -465 -539 -831 -1192 -1053 -1878 -99 -307 -183 -681 -222 -990 -56
-448 -59 -943 -9 -1380 120 -1059 548 -2065 1223 -2875 498 -597 1103 -1070
1811 -1414 943 -457 2021 -633 3095 -505 1810 217 3376 1307 4200 2924 536
1052 717 2278 514 3475 -311 1828 -1519 3362 -3220 4086 -488 208 -1030 347
-1589 410 -168 19 -858 28 -1030 14z m183 -745 c4 -49 6 -553 5 -1120 l-3
-1030 -85 3 c-359 14 -1154 188 -1382 303 l-58 29 19 48 c178 448 652 1274
990 1724 l72 96 67 11 c145 24 190 29 277 27 l90 -1 8 -90z m872 69 c54 -8
102 -17 105 -22 201 -241 548 -790 782 -1237 147 -280 303 -618 293 -635 -17
-27 -396 -143 -672 -204 -288 -65 -640 -116 -793 -116 l-70 0 2 1068 c3 1018
4 1069 21 1096 11 15 17 36 14 46 -3 13 2 20 17 23 32 7 189 -3 301 -19z
m-2236 -316 c-23 -46 -97 -182 -164 -303 -147 -264 -308 -584 -400 -795 -130
-298 -116 -272 -142 -265 -35 8 -279 124 -438 208 -187 98 -336 191 -399 249
l-51 47 70 67 c202 191 593 453 935 624 213 107 561 249 613 250 14 0 11 -13
-24 -82z m3428 13 c292 -107 626 -279 903 -464 207 -139 520 -386 520 -411 0
-50 -408 -288 -769 -450 -168 -76 -143 -90 -241 141 -107 251 -288 616 -420
848 -94 164 -210 384 -210 398 0 8 120 -26 217 -62z m-5227 -1378 c298 -177
566 -318 838 -442 39 -18 72 -39 72 -46 0 -32 -35 -162 -86 -320 -215 -661
-350 -1278 -399 -1816 -9 -101 -20 -195 -24 -209 l-7 -25 -854 1 c-470 0 -873
4 -894 8 l-39 7 7 114 c3 63 15 187 27 277 104 819 418 1607 894 2242 108 145
264 328 274 322 3 -2 89 -53 191 -113z m7269 -148 c238 -304 482 -729 629
-1095 186 -465 308 -1009 338 -1507 l7 -111 -79 -8 c-44 -4 -446 -4 -894 -1
-922 7 -840 -2 -840 91 0 77 -37 389 -70 591 -64 392 -167 821 -300 1245 -118
375 -127 421 -92 456 9 10 96 56 192 103 325 157 746 391 849 473 l25 19 78
-78 c44 -43 114 -123 157 -178z m-5589 -628 c469 -170 880 -275 1260 -322 69
-9 144 -18 167 -21 l42 -5 8 -67 c4 -37 8 -427 8 -867 l0 -800 -1082 0 c-949
0 -1084 2 -1096 15 -30 33 21 498 99 895 75 383 234 926 337 1152 49 108 21
106 257 20z m3759 -50 c205 -469 402 -1342 428 -1899 l6 -138 -1050 0 c-578 0
-1071 3 -1097 6 l-46 7 2 822 c3 767 4 824 21 842 9 11 17 24 17 30 0 24 34
34 153 48 404 48 919 180 1352 349 77 30 145 55 150 55 6 1 34 -54 64 -122z
m-5050 -2599 c6 -29 18 -111 27 -183 8 -71 21 -184 30 -250 65 -519 216 -1127
420 -1698 52 -147 62 -183 52 -193 -7 -7 -78 -42 -158 -79 -279 -127 -579
-288 -831 -446 -70 -44 -130 -79 -135 -79 -15 0 -151 163 -269 321 -334 447
-602 1004 -755 1567 -119 439 -187 993 -133 1085 2 4 395 7 872 7 l868 0 12
-52z m2765 2 c12 -63 19 -1661 7 -1679 -6 -10 -68 -21 -198 -38 -451 -56 -904
-173 -1381 -357 -52 -20 -104 -36 -117 -36 -27 0 -33 15 -117 260 -176 521
-301 1072 -353 1568 -19 173 -19 231 0 262 8 14 17 33 21 42 3 9 13 19 23 21
9 3 486 4 1061 3 l1045 -1 9 -45z m2684 41 c20 -12 27 -185 13 -327 -45 -445
-171 -1004 -341 -1514 -79 -236 -112 -314 -132 -318 -10 -2 -84 22 -165 54
-451 174 -869 283 -1338 349 -104 15 -193 32 -197 39 -10 14 -9 1452 1 1565 6
75 9 86 34 105 15 12 27 27 27 33 0 7 12 14 28 16 54 8 2057 7 2070 -2z m2381
-7 c12 -11 2 -312 -12 -421 -129 -944 -506 -1798 -1088 -2468 -41 -47 -78 -85
-83 -85 -5 0 -64 35 -130 79 -191 123 -348 211 -681 378 -170 85 -312 157
-314 159 -2 2 28 95 68 206 237 672 370 1243 440 1891 22 198 38 254 75 262
11 3 89 7 171 9 194 4 1549 -4 1554 -10z m-5065 -2339 c15 -42 11 -2204 -3
-2218 -13 -13 -265 6 -381 28 -87 17 -73 3 -228 225 -261 374 -477 749 -692
1200 -105 221 -175 387 -189 449 -9 41 -9 42 28 61 53 27 276 92 491 144 312
76 764 147 904 143 57 -2 60 -4 70 -32z m843 10 c206 -27 461 -74 668 -125
228 -55 494 -135 513 -154 27 -26 -58 -232 -259 -636 -226 -452 -487 -882
-731 -1205 l-53 -70 -75 -13 c-41 -7 -145 -14 -230 -15 l-155 -2 0 1090 c0
600 3 1102 8 1118 l7 27 95 0 c52 0 147 -7 212 -15z m-2767 -738 c196 -450
384 -809 612 -1161 21 -33 38 -63 38 -68 0 -15 -26 -9 -165 37 -323 107 -644
262 -949 458 -268 172 -524 378 -565 456 -10 18 -4 25 51 64 159 113 470 285
710 393 l143 64 21 -26 c12 -14 59 -112 104 -217z m4620 184 c252 -105 800
-418 800 -456 0 -23 -130 -143 -270 -249 -305 -232 -626 -420 -946 -555 -208
-87 -454 -165 -470 -148 -3 3 34 70 84 149 228 364 405 710 591 1156 24 56 52
114 63 127 23 29 21 30 148 -24z"/>
</g>
</svg>
