<?xml version="1.0" standalone="no"?>
<!DOCTYPE svg PUBLIC "-//W3C//DTD SVG 20010904//EN"
 "http://www.w3.org/TR/2001/REC-SVG-20010904/DTD/svg10.dtd">
<svg version="1.0" xmlns="http://www.w3.org/2000/svg"
 width="661.000000pt" height="618.000000pt" viewBox="0 0 661.000000 618.000000"
 preserveAspectRatio="xMidYMid meet">

<g transform="translate(0.000000,618.000000) scale(0.100000,-0.100000)"
fill="#000000" stroke="none">
<path d="M3455 5950 c-346 -33 -578 -154 -725 -377 -76 -115 -117 -227 -210
-575 -17 -65 -53 -166 -81 -225 -166 -353 -267 -657 -329 -983 -42 -218 -82
-415 -120 -580 -17 -74 -37 -166 -45 -204 -26 -118 -126 -501 -133 -507 -4 -4
-71 -16 -150 -28 -218 -34 -342 -63 -627 -149 -439 -133 -711 -320 -819 -565
-29 -64 -56 -187 -56 -251 0 -163 162 -309 495 -448 97 -40 349 -129 475 -168
58 -17 134 -41 170 -52 118 -36 750 -191 1039 -253 741 -161 1191 -219 1701
-218 270 0 327 3 495 26 419 57 748 159 1055 328 278 153 549 381 751 632 l79
98 0 68 c0 151 -51 336 -122 439 -197 289 -593 445 -1318 522 -113 12 -214 23
-225 25 -25 5 -195 258 -225 335 -52 133 -91 278 -101 374 -5 56 -16 139 -24
186 -8 47 -19 139 -25 205 -36 389 -45 438 -117 610 -84 204 -105 267 -110
346 -12 164 46 228 230 250 183 23 404 -14 756 -125 210 -67 233 -72 271 -56
40 16 60 51 60 103 0 152 -144 344 -460 613 -307 261 -607 446 -865 532 -201
68 -457 94 -690 72z m355 -201 c275 -34 536 -149 840 -373 145 -106 313 -249
433 -369 102 -102 125 -138 74 -117 -114 45 -378 105 -537 121 -269 27 -462
-20 -569 -136 -74 -82 -95 -144 -96 -280 0 -126 23 -226 82 -354 92 -202 113
-291 138 -593 8 -104 22 -223 30 -265 8 -43 19 -125 24 -183 12 -119 23 -168
82 -342 49 -144 55 -156 217 -398 172 -258 222 -369 206 -458 -21 -111 -146
-315 -257 -418 -157 -146 -353 -217 -707 -255 -141 -15 -642 -6 -825 16 -365
42 -651 132 -830 260 -75 53 -202 186 -221 231 -27 63 -12 160 62 424 56 198
77 275 124 460 27 107 58 236 69 285 11 50 33 149 50 220 16 72 43 202 60 290
80 401 95 466 137 603 54 174 143 401 225 571 33 69 66 150 73 180 35 147 111
404 138 469 87 210 229 329 453 382 154 37 371 49 525 29z m1255 -3479 c742
-95 1071 -271 1140 -612 26 -130 25 -132 -63 -233 -422 -483 -946 -749 -1642
-834 -579 -71 -1237 -8 -2225 213 -260 58 -311 70 -520 122 -287 72 -502 133
-700 199 -236 79 -286 99 -442 175 -104 52 -156 84 -197 123 -64 60 -68 78
-41 182 43 163 175 297 401 405 196 94 553 201 839 251 61 10 116 19 122 19
15 0 11 -21 -28 -177 -31 -119 -37 -227 -18 -296 43 -157 262 -365 502 -477
185 -87 451 -153 752 -187 229 -26 798 -26 970 0 455 68 721 233 908 564 26
45 61 117 78 160 28 68 32 90 32 168 0 72 -6 104 -27 161 -29 80 -31 94 -13
94 6 0 84 -9 172 -20z"/>
</g>
</svg>
